<svg width="34" height="34" viewBox="0 0 34 34" fill="none" xmlns="http://www.w3.org/2000/svg">
<path d="M29.0643 25.947C29.0643 27.8171 27.549 29.3324 25.6789 29.3324H8.07475C6.20532 29.3324 4.68933 27.8171 4.68933 25.947V8.34281C4.68933 6.47271 6.20532 4.9574 8.07475 4.9574H25.6789C27.549 4.9574 29.0643 6.47271 29.0643 8.34281V25.947Z" fill="#0078D4"/>
<path opacity="0.05" d="M20.9394 25.9469V19.1091C20.9394 17.9655 20.3849 17.2823 19.4552 17.2823C18.9034 17.2823 18.4978 17.5931 18.2507 18.2058C18.2392 18.2492 18.223 18.4259 18.2297 18.9601L18.2311 25.9469H13.4915V13.0824H18.2311V13.8007C18.9231 13.3234 19.7714 13.0824 20.762 13.0824C23.8407 13.0824 25.6783 15.1766 25.6783 18.6845L25.679 25.9469H20.9394ZM8.07483 25.9469V13.0824H10.4155C9.05931 13.0824 8.07483 12.0857 8.07483 10.7119C8.07483 9.33944 9.07556 8.34277 10.4541 8.34277C11.8164 8.34277 12.7867 9.31168 12.8144 10.6983C12.8144 12.0823 11.813 13.0824 10.4345 13.0824H12.8144V25.9469H8.07483Z" fill="black"/>
<path opacity="0.07" d="M21.2778 25.6085V19.1092C21.2778 17.7733 20.5797 16.9438 19.4551 16.9438C18.5783 16.9438 18.1449 17.5613 17.9364 18.0793C17.8809 18.2141 17.8883 18.7489 17.891 18.9771L17.8924 25.6085H13.8299V13.421H17.8924V14.53C18.4307 13.9728 19.2973 13.421 20.7619 13.421C23.6279 13.421 25.3396 15.3886 25.3396 18.6846L25.3403 25.6085H21.2778ZM8.41321 25.6085V13.421H12.4757V25.6085H8.41321ZM10.4153 12.7439C9.2555 12.7439 8.41321 11.8894 8.41321 10.712C8.41321 9.5352 9.27175 8.6814 10.4539 8.6814C11.6212 8.6814 12.452 9.51353 12.4757 10.7052C12.4757 11.8894 11.6172 12.7439 10.4343 12.7439H10.4153Z" fill="black"/>
<path d="M8.75183 13.7595H12.1372V25.2699H8.75183V13.7595ZM10.4344 12.4053H10.4154C9.40522 12.4053 8.75183 11.6524 8.75183 10.7119C8.75183 9.75115 9.42553 9.0199 10.454 9.0199C11.4839 9.0199 12.1183 9.75115 12.1372 10.7119C12.1372 11.6517 11.4839 12.4053 10.4344 12.4053ZM25.0018 25.2699H21.6164V19.1091C21.6164 17.6209 20.787 16.6053 19.4552 16.6053C18.4389 16.6053 17.8891 17.2905 17.6223 17.9527C17.5248 18.1896 17.5539 18.8451 17.5539 19.1761V25.2699H14.1685V13.7595H17.5539V15.5307C18.0421 14.7751 18.8065 13.7595 20.7619 13.7595C23.1845 13.7595 25.0012 15.2829 25.0012 18.6846L25.0018 25.2699Z" fill="white"/>
</svg>
