<svg width="33" height="34" viewBox="0 0 33 34" fill="none" xmlns="http://www.w3.org/2000/svg">
<path d="M29.7462 23.848C29.4754 25.2699 28.3243 26.3532 26.9024 26.5564C24.6681 26.8949 20.9441 27.3011 16.7462 27.3011C12.616 27.3011 8.89203 26.8949 6.58995 26.5564C5.16807 26.3532 4.01703 25.2699 3.7462 23.848C3.47536 22.2907 3.20453 19.9886 3.20453 17.1449C3.20453 14.3011 3.47536 11.9991 3.7462 10.4418C4.01703 9.0199 5.16807 7.93656 6.58995 7.73344C8.82432 7.3949 12.5483 6.98865 16.7462 6.98865C20.9441 6.98865 24.6004 7.3949 26.9024 7.73344C28.3243 7.93656 29.4754 9.0199 29.7462 10.4418C30.017 11.9991 30.3556 14.3011 30.3556 17.1449C30.2879 19.9886 30.017 22.2907 29.7462 23.848Z" fill="#FF3D00"/>
<path d="M14.0381 21.8844V12.4053L22.1631 17.1449L14.0381 21.8844Z" fill="white"/>
</svg>
