<svg width="34" height="34" viewBox="0 0 34 34" fill="none" xmlns="http://www.w3.org/2000/svg">
<g clip-path="url(#clip0_2225_1129)">
<path d="M33.1332 7.71584C32.7893 7.54725 32.641 7.86886 32.4392 8.03204C32.3702 8.08485 32.3119 8.15323 32.2537 8.2162C31.7506 8.75381 31.1629 9.10657 30.3944 9.06459C29.2718 9.00162 28.3131 9.35438 27.4654 10.2129C27.2853 9.15396 26.6867 8.52157 25.7761 8.116C25.2994 7.90542 24.8173 7.69417 24.4835 7.23579C24.2506 6.90943 24.1869 6.54584 24.0705 6.18766C23.996 5.97167 23.9222 5.75027 23.673 5.7137C23.4029 5.67172 23.2973 5.89787 23.191 6.08813C22.7671 6.86271 22.6032 7.71652 22.6188 8.58047C22.6561 10.5244 23.4767 12.0735 25.1078 13.1745C25.2933 13.3011 25.3407 13.427 25.2825 13.6119C25.1714 13.991 25.0387 14.3601 24.9223 14.7392C24.8478 14.9816 24.7367 15.0344 24.4774 14.9288C23.5823 14.5551 22.8091 14.0019 22.1259 13.3322C20.9661 12.2103 19.9173 10.9719 18.6091 10.0023C18.3017 9.77553 17.995 9.56495 17.6768 9.36454C16.3423 8.0686 17.8515 7.00423 18.2008 6.87761C18.5665 6.74558 18.3281 6.29261 17.1466 6.29803C15.9658 6.30344 14.8852 6.69818 13.508 7.22495C13.3069 7.30417 13.095 7.36172 12.8776 7.40912C11.6277 7.17214 10.3298 7.11933 8.97423 7.27235C6.42163 7.55672 4.38225 8.76329 2.88319 10.8237C1.08215 13.2997 0.658973 16.113 1.17762 19.0482C1.72335 22.1411 3.30163 24.7012 5.72694 26.7033C8.24298 28.7792 11.1395 29.7962 14.4451 29.6012C16.4526 29.4854 18.6877 29.2166 21.2085 27.0831C21.8442 27.3993 22.5112 27.5259 23.6182 27.6207C24.4706 27.7 25.2919 27.5788 25.9277 27.4467C26.9237 27.2362 26.8546 26.314 26.4944 26.1454C23.9953 25.2699 23.6371 24.8914 23.6371 24.8914C25.12 23.1371 27.355 21.3137 28.2291 15.4075C28.2982 14.939 28.24 14.6438 28.2291 14.2639C28.2237 14.0324 28.2765 13.9423 28.5419 13.9159C29.2725 13.8313 29.9828 13.6315 30.6341 13.2733C32.5252 12.2408 33.2876 10.544 33.4677 8.51074C33.4935 8.20063 33.4616 7.87902 33.1332 7.71584ZM16.6564 26.0194C13.8282 23.7959 12.4565 23.064 11.8898 23.0951C11.3603 23.1269 11.4557 23.7329 11.5722 24.1277C11.6941 24.5177 11.8532 24.7865 12.0753 25.1284C12.229 25.3552 12.3346 25.6924 11.9216 25.945C11.0109 26.509 9.4272 25.7554 9.35272 25.7181C7.5097 24.6328 5.96866 23.1994 4.88262 21.2399C3.83382 19.3535 3.22512 17.3304 3.12423 15.1705C3.09783 14.6492 3.25153 14.4643 3.77017 14.3695C4.45335 14.2429 5.15751 14.2165 5.84137 14.3167C8.72777 14.7385 11.1856 16.0291 13.246 18.0732C14.422 19.2378 15.3117 20.6285 16.2278 21.9881C17.2021 23.4316 18.2509 24.8068 19.5855 25.9341C20.0567 26.3295 20.4332 26.6295 20.7927 26.8509C19.7074 26.9728 17.8955 26.9992 16.6564 26.0194ZM18.0126 17.2993C18.0126 17.0677 18.1981 16.8829 18.4311 16.8829C18.4839 16.8829 18.5319 16.893 18.5739 16.9093C18.6321 16.9303 18.685 16.9621 18.7276 17.0095C18.8021 17.0833 18.8441 17.1889 18.8441 17.2993C18.8441 17.5308 18.6586 17.7157 18.4256 17.7157C18.1927 17.7157 18.0126 17.5315 18.0126 17.2993ZM22.2227 19.4598C21.9526 19.5702 21.6824 19.665 21.4231 19.6758C21.0202 19.6968 20.5808 19.5337 20.3425 19.3332C19.9714 19.0225 19.7067 18.8484 19.5956 18.3061C19.5482 18.0745 19.5746 17.7157 19.6166 17.5105C19.7121 17.0677 19.6058 16.7833 19.2937 16.5254C19.0391 16.3148 18.7161 16.2566 18.3613 16.2566C18.2286 16.2566 18.1074 16.1983 18.0174 16.1509C17.8691 16.0771 17.7472 15.893 17.8637 15.6662C17.9009 15.5924 18.081 15.4136 18.123 15.3818C18.6051 15.1076 19.1609 15.1976 19.6749 15.4028C20.1515 15.5978 20.5117 15.9559 21.0311 16.4617C21.5605 17.0731 21.656 17.2417 21.958 17.7001C22.1963 18.0583 22.4137 18.4273 22.5619 18.8484C22.652 19.1118 22.5355 19.3278 22.2227 19.4598Z" fill="#536DFE"/>
</g>
<defs>
<clipPath id="clip0_2225_1129">
<rect width="32.5" height="32.5" fill="white" transform="translate(0.974609 0.894897)"/>
</clipPath>
</defs>
</svg>
