<svg width="33" height="34" viewBox="0 0 33 34" fill="none" xmlns="http://www.w3.org/2000/svg">
<g clip-path="url(#clip0_2225_1126)">
<path d="M19.8076 17.1449C19.7934 16.9221 19.7839 16.6973 19.7839 16.4678C19.7839 12.3511 21.7204 9.69694 24.5235 9.69694C26.833 9.69694 28.8094 11.4993 29.2631 14.4365H30.6172L30.6179 8.34277H29.2631C29.2631 8.34277 28.9022 9.36246 28.586 9.12819C27.3002 8.40642 26.0652 8.36173 24.5072 8.36173C20.5802 8.36173 17.0756 11.9042 17.0756 16.4136C17.0756 16.6601 17.0898 16.9031 17.1088 17.1449H15.6876C15.7072 16.9031 15.7214 16.6601 15.7214 16.4136C15.7214 11.9042 12.2168 8.36173 8.28975 8.36173C6.73178 8.36173 5.49678 8.40574 4.211 9.12819C3.8948 9.36246 3.53392 8.34277 3.53392 8.34277H2.17907L2.17975 14.4365H3.53392C3.98756 11.4993 5.96397 9.69694 8.2735 9.69694C11.0766 9.69694 13.0131 12.3511 13.0131 16.4678C13.0131 16.6973 13.0036 16.9221 12.9894 17.1449H0.148499V18.499H0.831676C1.56496 18.499 2.17027 19.082 2.18517 19.8146C2.21089 21.0645 2.33142 22.5656 2.85683 23.2386C3.71605 24.3389 4.88808 25.2699 8.2735 25.2699C11.6738 25.2699 14.9902 22.2047 15.7214 18.499H17.0756C17.8068 22.2047 21.1232 25.2699 24.5235 25.2699C27.9089 25.2699 29.0809 24.3389 29.9402 23.2386C30.4656 22.5656 30.5861 21.0645 30.6118 19.8146C30.6267 19.082 31.2327 18.499 31.9653 18.499H32.6485V17.1449H19.8076ZM7.91938 23.7329C6.83266 23.7329 5.1061 23.7288 4.88808 22.5615C4.81428 22.1668 4.82647 20.8505 4.84949 19.822C4.86642 19.0861 5.46699 18.499 6.20365 18.499H13.0131C12.4755 21.7362 10.3149 23.7329 7.91938 23.7329ZM27.9089 22.5615C27.6909 23.7288 25.9643 23.7329 24.8776 23.7329C22.4828 23.7329 20.3215 21.7362 19.7839 18.499H26.5933C27.33 18.499 27.9306 19.0861 27.9475 19.822C27.9705 20.8505 27.9827 22.1668 27.9089 22.5615Z" fill="#43A047"/>
</g>
<defs>
<clipPath id="clip0_2225_1126">
<rect width="32.5" height="32.5" fill="white" transform="translate(0.148499 0.894897)"/>
</clipPath>
</defs>
</svg>
