<svg width="34" height="34" viewBox="0 0 34 34" fill="none" xmlns="http://www.w3.org/2000/svg">
<path fill-rule="evenodd" clip-rule="evenodd" d="M17.0506 4.9574C10.3181 4.9574 4.8631 10.4124 4.8631 17.1449C4.8631 22.5285 8.35431 27.0988 13.1984 28.7095C13.8093 28.8206 14.0315 28.4477 14.0315 28.1224C14.0315 27.8328 14.0196 27.0671 14.0156 26.0515C10.6236 26.7854 9.90948 24.4169 9.90948 24.4169C9.35406 23.0085 8.55664 22.6317 8.55664 22.6317C7.44977 21.8779 8.63995 21.8937 8.63995 21.8937C9.86188 21.981 10.5046 23.1474 10.5046 23.1474C11.5916 25.012 13.3571 24.4725 14.0513 24.163C14.1624 23.3735 14.4798 22.838 14.825 22.5325C12.1193 22.227 9.27472 21.1796 9.27472 16.5101C9.27472 15.1771 9.75079 14.0901 10.5284 13.2371C10.4054 12.9316 9.98486 11.6899 10.6474 10.0117C10.6474 10.0117 11.671 9.6864 13.9998 11.2614C14.9717 10.9916 16.0151 10.8568 17.0506 10.8528C18.0861 10.8568 19.1295 10.9916 20.1014 11.2614C22.4302 9.6864 23.4498 10.0117 23.4498 10.0117C24.1163 11.6899 23.6998 12.9316 23.5728 13.2371C24.3544 14.0901 24.8225 15.1771 24.8225 16.5101C24.8225 21.1915 21.974 22.2191 19.2604 22.5245C19.6968 22.8975 20.0856 23.6433 20.0856 24.778C20.0856 26.4085 20.0737 27.7217 20.0737 28.1224C20.0737 28.4477 20.2919 28.8286 20.9108 28.7095C25.7509 27.0948 29.2381 22.5285 29.2381 17.1449C29.2381 10.4124 23.7831 4.9574 17.0506 4.9574Z" fill="black"/>
</svg>
